<svg id="Capa_1" data-name="Capa 1" xmlns="http://www.w3.org/2000/svg" viewBox="0 0 235.96 115.69"><defs><style>.cls-1{fill:#465a61;}.cls-2{fill:#f3d53e;}.cls-3{fill:#8bac57;}.cls-4{font-size:28px;fill:#fff;font-family:VinerHandITC, Viner Hand ITC;}</style></defs><title>Logo</title><circle class="cls-1" cx="9.71" cy="45.33" r="4.06"/><circle class="cls-1" cx="18.5" cy="45.33" r="4.06"/><circle class="cls-1" cx="27.75" cy="46.46" r="4.06"/><circle class="cls-1" cx="36.99" cy="46.46" r="4.06"/><circle class="cls-1" cx="46.45" cy="46.46" r="4.06"/><circle class="cls-1" cx="55.47" cy="46.46" r="4.06"/><circle class="cls-1" cx="4.53" cy="53" r="4.06"/><circle class="cls-1" cx="13.99" cy="53.67" r="4.06"/><circle class="cls-1" cx="23.24" cy="54.12" r="4.06"/><circle class="cls-1" cx="32.48" cy="54.12" r="4.06"/><circle class="cls-1" cx="41.5" cy="54.57" r="4.06"/><circle class="cls-1" cx="18.5" cy="62.01" r="4.06"/><circle class="cls-1" cx="27.75" cy="62.24" r="4.06"/><circle class="cls-1" cx="36.99" cy="62.92" r="4.06"/><circle class="cls-1" cx="32.48" cy="72.38" r="4.06"/><circle class="cls-1" cx="41.5" cy="71.71" r="4.06"/><circle class="cls-1" cx="36.99" cy="80.72" r="4.06"/><path class="cls-2" d="M269.84,453.09c.61.61,2.53,2.11,4.7-.2a.92.92,0,0,0,.24-.69l-3-34.9a2,2,0,0,0-.34-1c-.3-.42-.75-.83-1.11-.12a1.89,1.89,0,0,0-.18.82l-.51,35.56A.66.66,0,0,0,269.84,453.09Z" transform="translate(-240.24 -338.44)"/><path class="cls-2" d="M261,449.36a3.33,3.33,0,0,0,5,.45.87.87,0,0,0,.35-.66l1.54-35.1a1.94,1.94,0,0,0-.23-1c-.26-.45-.68-.92-1.15-.27a1.8,1.8,0,0,0-.31.79l-5.33,35.28A.63.63,0,0,0,261,449.36Z" transform="translate(-240.24 -338.44)"/><path class="cls-2" d="M253.39,446.28c.35.78,1.56,2.79,4.08,1a1.06,1.06,0,0,0,.41-.63l7.52-36a2.37,2.37,0,0,0,0-1.06c-.13-.5-.4-1-.91-.41a2.31,2.31,0,0,0-.4.78l-10.72,35.75A.79.79,0,0,0,253.39,446.28Z" transform="translate(-240.24 -338.44)"/><path class="cls-2" d="M246.57,436.09a3.27,3.27,0,0,0,4.27,2c.23-.06,12.13-28.9,12.13-28.9a1.62,1.62,0,0,0,.09-.9c-.09-.46-.33-1-.94-.59a1.55,1.55,0,0,0-.5.55l-15,27.39A.55.55,0,0,0,246.57,436.09Z" transform="translate(-240.24 -338.44)"/><path class="cls-2" d="M240.42,399.23a3.62,3.62,0,0,0,.52,3.24c.08.12.18.17.26.15l11.71-2.76a.47.47,0,0,0,.3-.25.57.57,0,0,0-.07-.76.43.43,0,0,0-.3-.12l-12.27.35C240.5,399.08,240.45,399.14,240.42,399.23Z" transform="translate(-240.24 -338.44)"/><path class="cls-2" d="M240.93,408.18a3.14,3.14,0,0,0,1.56,2.66.28.28,0,0,0,.3,0l10.34-7a.53.53,0,0,0,.2-.34c0-.23,0-.56-.31-.65a.44.44,0,0,0-.32,0L241,408A.18.18,0,0,0,240.93,408.18Z" transform="translate(-240.24 -338.44)"/><path class="cls-2" d="M241,418.5a2.89,2.89,0,0,0,2.45,2.57.42.42,0,0,0,.41-.1l12.79-13.56a.77.77,0,0,0,.22-.51c0-.31,0-.7-.5-.66a.78.78,0,0,0-.43.17l-14.84,11.81A.3.3,0,0,0,241,418.5Z" transform="translate(-240.24 -338.44)"/><path class="cls-2" d="M241.53,427.09a2.69,2.69,0,0,0,3,2.46.62.62,0,0,0,.48-.23l15.07-20.06a1.29,1.29,0,0,0,.25-.69c0-.38-.05-.85-.62-.67a1.36,1.36,0,0,0-.51.33l-17.53,18.49A.45.45,0,0,0,241.53,427.09Z" transform="translate(-240.24 -338.44)"/><path class="cls-2" d="M265.45,339.32c-.71-.59-2.86-2-4.62.86a1.08,1.08,0,0,0-.13.81l8.81,38.36a2.38,2.38,0,0,0,.5,1c.36.42.88.82,1.11,0a2.42,2.42,0,0,0,.05-.93l-5.44-39.58A.86.86,0,0,0,265.45,339.32Z" transform="translate(-240.24 -338.44)"/><path class="cls-2" d="M286.16,341.27c-.43-.8-1.89-2.87-4.6-1a1,1,0,0,0-.42.67l-6.43,37.56a2.16,2.16,0,0,0,.07,1.1c.17.52.5,1.06,1,.41a2.07,2.07,0,0,0,.39-.82l10-37.36A.8.8,0,0,0,286.16,341.27Z" transform="translate(-240.24 -338.44)"/><path class="cls-2" d="M255,343.08c-.8-.38-3.15-1.18-4.32,1.84a1,1,0,0,0,0,.76l15.8,33.17a2.13,2.13,0,0,0,.67.82c.43.3,1,.55,1.08-.27a2,2,0,0,0-.13-.87l-12.75-35A.73.73,0,0,0,255,343.08Z" transform="translate(-240.24 -338.44)"/><path class="cls-2" d="M293,347.85c-.23-.74-1.1-2.69-3.6-1.44a.93.93,0,0,0-.44.51l-11,31.17a2,2,0,0,0-.11.94c.06.46.25,1,.78.48a1.73,1.73,0,0,0,.45-.64L293,348.34A.64.64,0,0,0,293,347.85Z" transform="translate(-240.24 -338.44)"/><path class="cls-2" d="M298.08,357.76a2.62,2.62,0,0,0-3.3-2,.7.7,0,0,0-.47.33l-12.84,23.21a1.33,1.33,0,0,0-.18.75c0,.4.16.86.71.58a1.36,1.36,0,0,0,.47-.42l15.54-22A.51.51,0,0,0,298.08,357.76Z" transform="translate(-240.24 -338.44)"/><path class="cls-2" d="M246.69,348c-.64-.35-2.42-1.11-2.42,1.47a1.26,1.26,0,0,0,.22.66l19.26,29.15a3,3,0,0,0,.67.73c.37.28.82.51.65-.2a2.84,2.84,0,0,0-.31-.75L247,348.41A1,1,0,0,0,246.69,348Z" transform="translate(-240.24 -338.44)"/><path class="cls-2" d="M300.18,367.87a1.48,1.48,0,0,0-1.63-1.73.46.46,0,0,0-.35.14l-12.81,13.18a1.12,1.12,0,0,0-.27.46c-.06.25-.08.57.32.46a1.23,1.23,0,0,0,.39-.21l14.23-12.06A.33.33,0,0,0,300.18,367.87Z" transform="translate(-240.24 -338.44)"/><path class="cls-2" d="M301.14,391.74a1.82,1.82,0,0,1-.09,2.27.28.28,0,0,1-.24.13L288.68,393a.6.6,0,0,1-.33-.16c-.14-.14-.28-.35,0-.53a.42.42,0,0,1,.28-.1l12.37-.58A.18.18,0,0,1,301.14,391.74Z" transform="translate(-240.24 -338.44)"/><path class="cls-2" d="M303.12,398a1.79,1.79,0,0,1-.75,2.35.37.37,0,0,1-.32.05l-14.2-5.32a.68.68,0,0,1-.35-.28c-.13-.19-.24-.46.11-.57a.77.77,0,0,1,.37,0l15,3.61A.27.27,0,0,1,303.12,398Z" transform="translate(-240.24 -338.44)"/><path class="cls-2" d="M301.75,373.29a1.69,1.69,0,0,1,1,2.06.31.31,0,0,1-.18.23L290,380.79a.67.67,0,0,1-.4,0c-.2-.05-.45-.17-.28-.45a.59.59,0,0,1,.24-.23l12-6.84A.24.24,0,0,1,301.75,373.29Z" transform="translate(-240.24 -338.44)"/><path class="cls-2" d="M244.86,372.44a3,3,0,0,1,1.93-2.36.26.26,0,0,1,.31,0l9.45,8.76a.49.49,0,0,1,.16.37c0,.24,0,.55-.4.59a.58.58,0,0,1-.33-.07l-11-7.1A.21.21,0,0,1,244.86,372.44Z" transform="translate(-240.24 -338.44)"/><path class="cls-2" d="M240.44,358.72a1.76,1.76,0,0,1,2.31-1.9.7.7,0,0,1,.45.29l15.53,20.64a1.67,1.67,0,0,1,.31.68c.06.36,0,.78-.47.54a1.58,1.58,0,0,1-.48-.38l-17.51-19.51A.54.54,0,0,1,240.44,358.72Z" transform="translate(-240.24 -338.44)"/><path class="cls-2" d="M302.26,412.88a1.41,1.41,0,0,0,1.32-2.05.62.62,0,0,0-.28-.34l-18.84-11.07a1.43,1.43,0,0,0-.59-.2c-.3,0-.65,0-.4.42a1.45,1.45,0,0,0,.37.37L302,412.79A.51.51,0,0,0,302.26,412.88Z" transform="translate(-240.24 -338.44)"/><path class="cls-2" d="M303,405.78c.39-.07,1.41-.4.64-1.6a.66.66,0,0,0-.29-.22l-17.25-6.19a1.19,1.19,0,0,0-.52-.09c-.24,0-.51.08-.23.34a1.16,1.16,0,0,0,.37.23l17,7.5A.42.42,0,0,0,303,405.78Z" transform="translate(-240.24 -338.44)"/><path class="cls-2" d="M301,419.26a1.77,1.77,0,0,0,1.64-2.25.54.54,0,0,0-.24-.37L284.93,405a1.19,1.19,0,0,0-.58-.2c-.3,0-.66,0-.46.47a1.16,1.16,0,0,0,.31.39l16.52,13.55A.44.44,0,0,0,301,419.26Z" transform="translate(-240.24 -338.44)"/><path class="cls-2" d="M296.55,422a1.79,1.79,0,0,0,1.6-1.77.36.36,0,0,0-.11-.29l-10.87-8.87a.67.67,0,0,0-.39-.15c-.22,0-.49,0-.42.37a.87.87,0,0,0,.16.3l9.82,10.34A.26.26,0,0,0,296.55,422Z" transform="translate(-240.24 -338.44)"/><path class="cls-2" d="M271.12,339.41a2.9,2.9,0,0,1,4.06-.23A2.28,2.28,0,0,1,276,341l-.85,23.72a.31.31,0,0,1-.05.12l-3.67,5a.11.11,0,0,1-.2-.07l-.69-28.89A1.84,1.84,0,0,1,271.12,339.41Z" transform="translate(-240.24 -338.44)"/><path class="cls-3" d="M274.34,367.75,274,379.52a1.43,1.43,0,0,1-.31.88.59.59,0,0,1-.93.11,1.47,1.47,0,0,1-.51-1.14l-.15-8.49a.4.4,0,0,1,.08-.28l2-2.93C274.22,367.59,274.34,367.64,274.34,367.75Z" transform="translate(-240.24 -338.44)"/><text class="cls-4" transform="translate(85.19 60.86)">San Rafael</text></svg>